<svg aria-hidden="true" style="position: absolute; width: 0; height: 0; overflow: hidden;"
  version="1.1" xmlns="http://www.w3.org/2000/svg" xmlns:xlink="http://www.w3.org/1999/xlink">
  <defs>
    <linearGradient id="mainIconGradient" x1="0%" y1="0%" x2="0%" y2="100%">
      <stop offset="0%" style="stop-color: rgb(255, 255, 255); stop-opacity: 0.4" />
      <stop offset="100%" style="stop-color: rgb(255, 255, 255); stop-opacity: 0.2" />
    </linearGradient>
        <symbol id="icon-main" viewBox="0 0 32 32">
      <path fill="url(#mainIconGradient)"
        d="M26.551 12.845c-0.224-7.014-5.907-12.674-12.945-12.845-0.181 0-0.331 0.139-0.331 0.32l-0.011 4.712c0 0.234-0.181 0.416-0.416 0.426-7.016 0.213-12.678 5.905-12.849 12.941 0 0.181 0.139 0.33 0.32 0.33l4.702 0.011c0.235 0 0.416 0.181 0.427 0.416 0.224 7.014 5.918 12.674 12.945 12.845 0.181 0 0.331-0.139 0.331-0.32l0.011-4.712c0-0.235 0.181-0.416 0.416-0.426 7.016-0.224 12.678-5.916 12.849-12.941 0-0.181-0.139-0.33-0.32-0.33l-4.702-0.011c-0.235 0-0.416-0.181-0.427-0.416zM18.266 26.51c-3.988-0.235-7.187-3.475-7.336-7.483-0.011-0.171-0.149-0.309-0.32-0.309l-4.692-0.011c-0.245 0-0.437-0.203-0.427-0.448 0.235-3.987 3.476-7.185 7.486-7.334 0.171-0.011 0.309-0.149 0.309-0.32l0.011-4.701c0-0.245 0.203-0.437 0.448-0.426 3.988 0.234 7.187 3.475 7.336 7.483 0.011 0.171 0.149 0.309 0.32 0.309l4.692 0.011c0.245 0 0.437 0.203 0.427 0.448-0.235 4.093-3.636 7.344-7.784 7.344l-0.011 5.010c-0.011 0.245-0.213 0.437-0.459 0.426z"></path>
      <path fill="url(#mainIconGradient)"
        d="M13.136 13.164c0-0.645 0.691-1.054 1.257-0.743l5.219 2.871c0.586 0.322 0.586 1.164 0 1.486l-5.219 2.871c-0.565 0.311-1.257-0.098-1.257-0.743v-5.741z"></path>
    </symbol>
    <symbol id="icon-left" viewBox="0 0 32 32">
      <path fill="none" stroke="#fff" style="stroke: var(--color1, #fff)" stroke-linejoin="round"
        stroke-linecap="round" stroke-miterlimit="4" stroke-width="2.2857"
        d="M26 16h-20M6 16l9 9M6 16l9-9"></path>
    </symbol>
    <symbol id="icon-play" viewBox="0 0 32 32">
      <path fill="none" stroke="#e4e4e7" style="stroke: var(--color2, #e4e4e7)"
        stroke-linejoin="round" stroke-linecap="round" stroke-miterlimit="4" stroke-width="1.6"
        d="M28 16c0 6.627-5.373 12-12 12s-12-5.373-12-12c0-6.627 5.373-12 12-12s12 5.373 12 12z"></path>
      <path fill="none" stroke="#e4e4e7" style="stroke: var(--color2, #e4e4e7)"
        stroke-linejoin="round" stroke-linecap="round" stroke-miterlimit="4" stroke-width="1.6"
        d="M21.213 15.563c0.343 0.191 0.343 0.684 0 0.874l-7.47 4.15c-0.333 0.185-0.743-0.056-0.743-0.437v-8.301c0-0.381 0.41-0.622 0.743-0.437l7.47 4.15z"></path>
    </symbol>
    <symbol id="icon-up" viewBox="0 0 32 32">
      <path fill="none" stroke="#999" style="stroke: var(--color3, #999)" stroke-linejoin="round"
        stroke-linecap="round" stroke-miterlimit="4" stroke-width="2.6667"
        d="M16 26v-20M16 6l-9 9M16 6l9 9"></path>
    </symbol>
    <symbol id="icon-down" viewBox="0 0 32 32">
      <path fill="none" stroke="#999" style="stroke: var(--color3, #999)" stroke-linejoin="round"
        stroke-linecap="round" stroke-miterlimit="4" stroke-width="2.6667"
        d="M16 6v20M16 26l9-9M16 26l-9-9"></path>
    </symbol>
    <symbol id="icon-genres" viewBox="0 0 32 32">
      <path fill="none" stroke="#999" style="stroke: var(--color3, #999)" stroke-linejoin="round"
        stroke-linecap="round" stroke-miterlimit="4" stroke-width="2"
        d="M5 8c0-1.657 1.343-3 3-3h3c1.657 0 3 1.343 3 3v3c0 1.657-1.343 3-3 3h-3c-1.657 0-3-1.343-3-3v-3z"></path>
      <path fill="none" stroke="#999" style="stroke: var(--color3, #999)" stroke-linejoin="round"
        stroke-linecap="round" stroke-miterlimit="4" stroke-width="2"
        d="M5 21c0-1.657 1.343-3 3-3h3c1.657 0 3 1.343 3 3v3c0 1.657-1.343 3-3 3h-3c-1.657 0-3-1.343-3-3v-3z"></path>
      <path fill="none" stroke="#999" style="stroke: var(--color3, #999)" stroke-linejoin="round"
        stroke-linecap="round" stroke-miterlimit="4" stroke-width="2"
        d="M18 8c0-1.657 1.343-3 3-3h3c1.657 0 3 1.343 3 3v3c0 1.657-1.343 3-3 3h-3c-1.657 0-3-1.343-3-3v-3z"></path>
      <path fill="none" stroke="#999" style="stroke: var(--color3, #999)" stroke-linejoin="round"
        stroke-linecap="round" stroke-miterlimit="4" stroke-width="2"
        d="M18 21c0-1.657 1.343-3 3-3h3c1.657 0 3 1.343 3 3v3c0 1.657-1.343 3-3 3h-3c-1.657 0-3-1.343-3-3v-3z"></path>
    </symbol>
    <symbol id="icon-date" viewBox="0 0 32 32">
      <path fill="none" stroke="#999" style="stroke: var(--color3, #999)" stroke-linejoin="round"
        stroke-linecap="round" stroke-miterlimit="4" stroke-width="2"
        d="M9 4v3M23 4v3M4 25v-15c0-1.657 1.343-3 3-3h18c1.657 0 3 1.343 3 3v15M4 25c0 1.657 1.343 3 3 3h18c1.657 0 3-1.343 3-3M4 25v-10c0-1.657 1.343-3 3-3h18c1.657 0 3 1.343 3 3v10"></path>
    </symbol>
    <symbol id="icon-lang" viewBox="0 0 32 32">
      <path fill="none" stroke="#999" style="stroke: var(--color3, #999)" stroke-linejoin="round"
        stroke-linecap="round" stroke-miterlimit="4" stroke-width="2"
        d="M14 28l7-15 7 15M16 24h10M4 7.495c2.621-0.327 5.291-0.495 8-0.495M12 7c1.494 0 2.977 0.051 4.446 0.152M12 7v-3M16.446 7.152c-1.544 7.058-6.194 12.955-12.446 16.184M16.446 7.152c1.194 0.082 2.379 0.197 3.554 0.343M13.882 18.822c-2.168-2.206-3.912-4.828-5.103-7.737"></path>
    </symbol>
    <symbol id="icon-eye" viewBox="0 0 32 32">
      <path fill="#999" style="fill: var(--color3, #999)"
        d="M16 20c2.209 0 4-1.791 4-4s-1.791-4-4-4c-2.209 0-4 1.791-4 4s1.791 4 4 4z"></path>
      <path fill="#999" style="fill: var(--color3, #999)"
        d="M1.765 15.262c-0.16 0.481-0.16 1.002 0 1.484 1.985 5.957 7.606 10.254 14.233 10.254 6.63 0 12.253-4.301 14.236-10.262 0.16-0.481 0.16-1.002-0.001-1.484-1.985-5.957-7.606-10.254-14.233-10.254-6.63 0-12.253 4.301-14.236 10.262zM23 16c0 3.866-3.134 7-7 7s-7-3.134-7-7c0-3.866 3.134-7 7-7s7 3.134 7 7z"></path>
    </symbol>
    <symbol id="icon-seasons" viewBox="0 0 32 32">
      <path fill="#999" style="fill: var(--color3, #999)"
        d="M7.422 6.21c0.503-0.137 1.032-0.21 1.578-0.21h14c0.546 0 1.075 0.073 1.578 0.21-0.657-1.31-2.012-2.21-3.578-2.21h-10c-1.566 0-2.921 0.899-3.578 2.21z"></path>
      <path fill="#999" style="fill: var(--color3, #999)"
        d="M3 16c0-2.209 1.791-4 4-4h18c2.209 0 4 1.791 4 4v8c0 2.209-1.791 4-4 4h-18c-2.209 0-4-1.791-4-4v-8z"></path>
      <path fill="#999" style="fill: var(--color3, #999)"
        d="M7 10c-0.546 0-1.075 0.073-1.578 0.21 0.657-1.31 2.012-2.21 3.578-2.21h14c1.565 0 2.921 0.899 3.578 2.21-0.503-0.137-1.032-0.21-1.578-0.21h-18z"></path>
    </symbol>
    <symbol id="icon-time" viewBox="0 0 32 32">
      <path fill="#999" style="fill: var(--color3, #999)"
        d="M16 3c7.18 0 13 5.82 13 13s-5.82 13-13 13c-7.18 0-13-5.82-13-13s5.82-13 13-13zM17 8c0-0.552-0.448-1-1-1s-1 0.448-1 1v8c0 0.552 0.448 1 1 1h6c0.552 0 1-0.448 1-1s-0.448-1-1-1h-5v-7z"></path>
    </symbol>
    <symbol id="icon-menu" viewBox="0 0 32 32">
      <path fill="#fff" style="fill: var(--color1, #fff)"
        d="M4 9c0 0.552 0.448 1 1 1h22c0.552 0 1-0.448 1-1s-0.448-1-1-1h-22c-0.552 0-1 0.448-1 1zM4 16c0 0.552 0.448 1 1 1h22c0.552 0 1-0.448 1-1s-0.448-1-1-1h-22c-0.552 0-1 0.448-1 1zM15 23c0 0.552 0.448 1 1 1h11c0.552 0 1-0.448 1-1s-0.448-1-1-1h-11c-0.552 0-1 0.448-1 1z"></path>
    </symbol>
    <symbol id="icon-t" viewBox="0 0 32 32">
      <path fill="#fff" style="fill: var(--color1, #fff)"
        d="M10.067 29c12.072 0 18.678-10.004 18.678-18.678 0-0.281-0.006-0.569-0.019-0.85 1.285-0.929 2.394-2.080 3.274-3.399-1.197 0.532-2.467 0.88-3.768 1.031 1.37-0.821 2.395-2.111 2.887-3.631-1.289 0.764-2.698 1.302-4.168 1.593-0.99-1.052-2.299-1.749-3.725-1.982s-2.889 0.009-4.163 0.691c-1.274 0.681-2.288 1.763-2.885 3.079s-0.745 2.791-0.419 4.199c-2.609-0.131-5.162-0.809-7.493-1.99s-4.387-2.838-6.036-4.865c-0.838 1.445-1.095 3.155-0.717 4.782s1.36 3.050 2.748 3.979c-1.042-0.033-2.062-0.314-2.974-0.819v0.081c-0.001 1.516 0.523 2.986 1.484 4.16s2.297 1.978 3.784 2.278c-0.966 0.264-1.979 0.303-2.962 0.113 0.419 1.304 1.236 2.445 2.335 3.263s2.426 1.272 3.795 1.3c-2.325 1.827-5.198 2.817-8.154 2.813-0.524-0.001-1.048-0.033-1.569-0.096 3.004 1.927 6.498 2.951 10.067 2.949z"></path>
    </symbol>
    <symbol id="icon-in" viewBox="0 0 32 32">
      <path fill="#fff" style="fill: var(--color1, #fff)"
        d="M29.631 0h-27.269c-1.306 0-2.362 1.031-2.362 2.306v27.381c0 1.275 1.056 2.313 2.362 2.313h27.269c1.306 0 2.369-1.037 2.369-2.306v-27.387c0-1.275-1.063-2.306-2.369-2.306zM9.494 27.269h-4.75v-15.275h4.75v15.275zM7.119 9.912c-1.525 0-2.756-1.231-2.756-2.75s1.231-2.75 2.756-2.75c1.519 0 2.75 1.231 2.75 2.75 0 1.512-1.231 2.75-2.75 2.75zM27.269 27.269h-4.744v-7.425c0-1.769-0.031-4.050-2.469-4.050-2.469 0-2.844 1.931-2.844 3.925v7.55h-4.738v-15.275h4.55v2.087h0.063c0.631-1.2 2.181-2.469 4.488-2.469 4.806 0 5.694 3.163 5.694 7.275v8.381z"></path>
    </symbol>
    <symbol id="icon-f" viewBox="0 0 32 32">
      <path fill="#fff" style="fill: var(--color1, #fff)"
        d="M32 16c0-8.837-7.163-16-16-16s-16 7.163-16 16c0 7.986 5.851 14.605 13.5 15.806v-11.181h-4.063v-4.625h4.063v-3.525c0-4.010 2.389-6.225 6.043-6.225 1.75 0 3.582 0.313 3.582 0.313v3.938h-2.018c-1.987 0-2.607 1.233-2.607 2.5v3h4.437l-0.709 4.625h-3.728v11.181c7.649-1.2 13.5-7.82 13.5-15.806z"></path>
    </symbol>
    <symbol id="icon-plus" viewBox="0 0 32 32">
      <path fill="#fff" style="fill: var(--color1, #fff)"
        d="M30 14h-12v-12c0-0.53-0.211-1.039-0.586-1.414s-0.884-0.586-1.414-0.586c-0.53 0-1.039 0.211-1.414 0.586s-0.586 0.884-0.586 1.414v12h-12c-0.53 0-1.039 0.211-1.414 0.586s-0.586 0.884-0.586 1.414c0 0.53 0.211 1.039 0.586 1.414s0.884 0.586 1.414 0.586h12v12c0 0.53 0.211 1.039 0.586 1.414s0.884 0.586 1.414 0.586c0.53 0 1.039-0.211 1.414-0.586s0.586-0.884 0.586-1.414v-12h12c0.53 0 1.039-0.211 1.414-0.586s0.586-0.884 0.586-1.414c0-0.53-0.211-1.039-0.586-1.414s-0.884-0.586-1.414-0.586z"></path>
    </symbol>
    <symbol id="icon--" viewBox="0 0 32 32">
      <path fill="#fff" style="fill: var(--color1, #fff)" stroke-linejoin="miter"
        stroke-linecap="butt" stroke-miterlimit="4" stroke-width="1.0667" stroke="#000"
        d="M6.667 15.2h18.667c0.212 0 0.416 0.084 0.566 0.234s0.234 0.354 0.234 0.566-0.084 0.416-0.234 0.566c-0.15 0.15-0.354 0.234-0.566 0.234h-18.667c-0.212 0-0.416-0.084-0.566-0.234s-0.234-0.354-0.234-0.566l0.016-0.157c0.031-0.153 0.106-0.296 0.219-0.408 0.15-0.15 0.353-0.234 0.566-0.234z"></path>
    </symbol>
    <symbol id="icon-tv" viewBox="0 0 43 32">
      <path fill="#e60000" style="fill: var(--color4, #e60000)"
        d="M0 20.364v0.591c14.245 0 28.394 0 42.598-0.014v-19.072c0-1.292-0.577-1.869-1.896-1.869h-38.807c-1.333 0-1.896 0.577-1.896 1.883v18.481zM20.009 14.151c-0.574 0.332-1.152 0.667-1.738 1.005v-8.080c1.487 0.866 2.951 1.71 4.432 2.563 0.845 0.487 1.696 0.977 2.56 1.477-1.78 1.025-3.498 2.019-5.254 3.034zM35.951 28.331c-0.136-0.333-0.275-0.674-0.414-1.028h0.001c1.854 0 3.598 0 5.315-0.014 0.934-0.014 1.648-0.536 1.69-1.374 0.047-0.798 0.036-1.602 0.024-2.413-0.005-0.362-0.010-0.726-0.010-1.091h-42.571v2.913c0 1.388 0.577 1.965 1.951 1.965h5.096c-0.426 1.072-0.824 2.061-1.222 3.050l-0 0.001c-0.165 0.44-0.234 0.879 0.316 1.086 0.536 0.206 0.797-0.151 0.975-0.591 0.121-0.298 0.244-0.594 0.367-0.891 0.297-0.716 0.594-1.431 0.856-2.16 0.151-0.398 0.357-0.495 0.756-0.495 8.146 0.014 16.292 0.014 24.438 0 0.426 0 0.604 0.137 0.742 0.522 0.312 0.827 0.644 1.634 0.979 2.446 0.049 0.119 0.098 0.238 0.147 0.357 0.034 0.076 0.065 0.148 0.096 0.22s0.062 0.144 0.096 0.22c0.179 0.398 0.549 0.591 0.879 0.357 0.22-0.151 0.412-0.632 0.33-0.879-0.238-0.734-0.529-1.448-0.836-2.201zM26.485 25.118h-5.22c-0.576 0-1.154-0.001-1.733-0.003-1.158-0.003-2.319-0.006-3.473 0.003-0.467 0-0.92-0.055-0.934-0.646-0.014-0.605 0.44-0.728 0.948-0.728h10.426c0.495 0 0.961 0.11 0.961 0.715 0 0.632-0.495 0.659-0.975 0.659z"></path>
      <path fill="#e60000" style="fill: var(--color4, #e60000)"
        d="M0 20.955h-1.231v1.231h1.231v-1.231zM42.598 20.941l0.001 1.231 1.23-0.001v-1.23h-1.231zM18.27 15.156h-1.231v2.133l1.847-1.068-0.616-1.066zM20.009 14.151v0zM18.27 7.077l0.62-1.063-1.85-1.078v2.141h1.231zM22.703 9.64v0zM25.262 11.116l0.614 1.067 1.849-1.064-1.847-1.068-0.616 1.066zM35.537 27.303v-1.231h-1.806l0.66 1.681 1.146-0.45zM35.951 28.331v0zM40.854 27.289l0.010 1.231 0.008-0-0.018-1.231zM42.543 25.915l-1.229-0.073-0.001 0.013 1.229 0.060zM42.568 23.502v0zM42.557 22.411h1.231v-1.231h-1.231v1.231zM-0.014 22.411v-1.231h-1.231v1.231h1.231zM7.033 27.289l1.144 0.455 0.67-1.685h-1.813v1.231zM5.811 30.339v0zM5.811 30.34l-1.142-0.46-0.006 0.014-0.005 0.014 1.152 0.432zM6.127 31.425l0.442-1.149-0.010-0.004-0.432 1.152zM7.102 30.834v0zM7.469 29.943v0zM8.325 27.784l-1.151-0.436-0.004 0.010-0.004 0.010 1.158 0.417zM9.080 27.289l0.002-1.231h-0.002v1.231zM33.518 27.289v-1.231h-0.002l0.002 1.231zM34.26 27.811l-1.159 0.414 0.004 0.010 0.004 0.010 1.152-0.434zM35.239 30.258v0zM35.386 30.615l-1.138 0.469 0.008 0.020 0.009 0.020 1.12-0.509zM35.579 31.054l1.123-0.503-0.003-0.006-1.12 0.509zM36.458 31.411l-0.697-1.014-0.014 0.010 0.712 1.004zM36.788 30.532l-1.171 0.38 0.003 0.009 1.168-0.389zM19.532 25.115v0zM16.058 25.118v1.231l0.010-0-0.010-1.231zM15.124 24.472v0zM0 20.955h1.231v-0.591h-2.462v0.591h1.231zM42.598 20.941l-0.001-1.231c-14.203 0.014-28.352 0.014-42.597 0.014v2.462c14.245 0 28.395 0 42.6-0.014l-0.001-1.231zM42.598 20.35h-1.231v0.591h2.462v-0.591h-1.231zM42.598 1.869h-1.231v18.481h2.462v-18.481h-1.231zM40.703 0v1.231c0.511 0 0.598 0.116 0.577 0.094-0.025-0.024 0.088 0.053 0.088 0.544h2.462c0-0.801-0.176-1.658-0.819-2.294-0.64-0.633-1.5-0.806-2.308-0.806v1.231zM1.896 0v1.231h38.807v-2.462h-38.807v1.231zM0 1.883h1.231c0-0.508 0.114-0.587 0.088-0.561s0.056-0.091 0.577-0.091v-2.462c-0.811 0-1.677 0.171-2.318 0.812s-0.809 1.504-0.809 2.301h1.231zM0 20.364h1.231v-18.481h-2.462v18.481h1.231zM18.27 15.156l0.616 1.066c0.586-0.339 1.164-0.673 1.738-1.006l-1.233-2.131c-0.574 0.332-1.152 0.667-1.738 1.005l0.616 1.065zM18.27 7.077h-1.231v8.080h2.462v-8.080h-1.231zM22.703 9.64l0.614-1.066c-1.481-0.854-2.943-1.696-4.427-2.56l-1.239 2.127c1.49 0.868 2.957 1.713 4.437 2.566l0.614-1.066zM25.262 11.116l0.616-1.066c-0.864-0.5-1.716-0.991-2.561-1.478l-1.229 2.133c0.846 0.487 1.695 0.977 2.558 1.476l0.616-1.066zM20.009 14.151l0.616 1.065c1.756-1.016 3.473-2.009 5.252-3.033l-1.228-2.133c-1.782 1.026-3.501 2.020-5.256 3.036l0.616 1.065zM35.537 27.303l-1.146 0.45c0.142 0.362 0.284 0.71 0.42 1.043l2.279-0.929c-0.136-0.334-0.272-0.668-0.408-1.013l-1.146 0.45zM35.538 27.303v-1.231h-0.001v2.462h0.001v-1.231zM40.854 27.289l-0.010-1.231c-1.711 0.014-3.45 0.014-5.305 0.014v2.462c1.853 0 3.602 0 5.325-0.014l-0.010-1.231zM42.543 25.915l-1.229-0.060c-0.002 0.038-0.010 0.053-0.011 0.056s-0.009 0.016-0.032 0.034c-0.049 0.039-0.184 0.11-0.436 0.113l0.036 2.461c1.346-0.020 2.817-0.845 2.901-2.544l-1.229-0.060zM42.568 23.502l-1.231 0.018c0.012 0.819 0.022 1.578-0.022 2.322l2.457 0.146c0.051-0.851 0.038-1.701 0.026-2.504l-1.231 0.018zM42.557 22.411h-1.231c0 0.375 0.005 0.748 0.011 1.108l2.461-0.035c-0.005-0.364-0.010-0.719-0.010-1.073h-1.231zM-0.014 22.411v1.231h42.571v-2.462h-42.571v1.231zM-0.014 25.324h1.231v-2.913h-2.462v2.913h1.231zM1.937 27.289v-1.231c-0.264 0-0.428-0.028-0.524-0.058-0.045-0.014-0.071-0.026-0.082-0.033-0.006-0.003-0.009-0.006-0.010-0.007s-0.001-0.001-0.001-0.001-0-0-0-0-0-0-0-0-0.001-0.001-0.001-0.001-0.004-0.005-0.007-0.012c-0.007-0.013-0.020-0.039-0.035-0.086-0.030-0.099-0.059-0.267-0.059-0.535h-2.462c0 0.827 0.166 1.715 0.818 2.371 0.654 0.658 1.54 0.825 2.363 0.825v-1.231zM7.033 27.289v-1.231h-5.096v2.462h5.096v-1.231zM5.811 30.339l1.142 0.46c0.398-0.989 0.797-1.98 1.224-3.055l-2.288-0.909c-0.425 1.068-0.822 2.055-1.22 3.044l1.142 0.46zM5.811 30.34v0zM6.127 31.425l0.432-1.152c0.004 0.001 0.090 0.035 0.185 0.142 0.102 0.115 0.154 0.248 0.172 0.359 0.015 0.095 0.002 0.148 0.005 0.132 0.003-0.014 0.013-0.055 0.043-0.133l-2.305-0.864c-0.090 0.24-0.259 0.725-0.172 1.259 0.049 0.301 0.177 0.61 0.415 0.88 0.231 0.261 0.515 0.427 0.794 0.531l0.432-1.152zM7.102 30.834l-1.14-0.463c-0.029 0.072-0.048 0.105-0.054 0.114s0.019-0.035 0.091-0.090c0.083-0.064 0.203-0.121 0.345-0.137 0.133-0.015 0.216 0.015 0.224 0.018l-0.884 2.297c0.608 0.234 1.27 0.191 1.813-0.225 0.429-0.329 0.64-0.793 0.745-1.051l-1.14-0.463zM7.469 29.943l-1.137-0.472c-0.123 0.296-0.248 0.597-0.371 0.9l2.281 0.925c0.118-0.292 0.24-0.584 0.363-0.882l-1.137-0.472zM8.325 27.784l-1.158-0.417c-0.251 0.696-0.536 1.384-0.835 2.105l2.274 0.943c0.295-0.711 0.603-1.453 0.877-2.214l-1.158-0.417zM9.080 27.289v-1.231c-0.267 0-0.699 0.025-1.115 0.28-0.442 0.271-0.665 0.676-0.792 1.009l2.302 0.873c0.025-0.065-0.020 0.092-0.221 0.215-0.175 0.108-0.305 0.084-0.174 0.084v-1.231zM33.518 27.289l-0.002-1.231c-8.145 0.014-16.289 0.014-24.434 0l-0.002 1.231-0.002 1.231c8.147 0.014 16.295 0.014 24.442 0l-0.002-1.231zM34.26 27.811l1.159-0.414c-0.102-0.286-0.291-0.695-0.705-0.992-0.417-0.299-0.871-0.347-1.196-0.347v2.462c0.101 0-0.051 0.021-0.238-0.113-0.184-0.132-0.215-0.28-0.179-0.181l1.159-0.414zM35.239 30.258l1.138-0.469c-0.336-0.816-0.662-1.604-0.965-2.411l-2.303 0.868c0.319 0.848 0.659 1.672 0.993 2.482l1.138-0.469zM35.386 30.615l1.138-0.469c-0.049-0.119-0.098-0.239-0.147-0.357l-2.276 0.939c0.049 0.119 0.098 0.237 0.147 0.356l1.138-0.469zM35.482 30.834l1.131-0.485c-0.030-0.071-0.066-0.155-0.107-0.244l-2.241 1.018c0.028 0.062 0.054 0.122 0.085 0.195l1.131-0.485zM35.579 31.054l1.12-0.509c-0.028-0.062-0.054-0.122-0.085-0.195l-2.263 0.969c0.030 0.071 0.066 0.155 0.107 0.244l1.12-0.509zM36.458 31.411l-0.712-1.004c0.075-0.053 0.189-0.106 0.335-0.121 0.145-0.015 0.275 0.013 0.376 0.057 0.189 0.083 0.242 0.202 0.245 0.208l-2.246 1.007c0.181 0.404 0.509 0.819 1.011 1.039 0.554 0.243 1.187 0.185 1.703-0.181l-0.712-1.004zM36.788 30.532l-1.168 0.389c-0.057-0.171-0.043-0.294-0.040-0.315 0.004-0.035 0.010-0.046 0.007-0.039s-0.002 0.003 0.008-0.013c0.004-0.007 0.052-0.079 0.165-0.157l1.395 2.028c0.404-0.278 0.624-0.701 0.73-0.977 0.099-0.257 0.248-0.773 0.070-1.306l-1.168 0.389zM35.951 28.331l-1.14 0.465c0.31 0.761 0.584 1.433 0.805 2.117l2.341-0.76c-0.254-0.784-0.563-1.54-0.867-2.286l-1.14 0.465zM21.265 25.118v1.231h5.22v-2.462h-5.22v1.231zM19.532 25.115l-0.003 1.231c0.578 0.001 1.158 0.003 1.736 0.003v-2.462c-0.575 0-1.151-0.001-1.73-0.003l-0.003 1.231zM16.058 25.118l0.010 1.231c1.147-0.009 2.301-0.006 3.46-0.003l0.003-1.231 0.003-1.231c-1.157-0.003-2.324-0.006-3.487 0.003l0.010 1.231zM15.124 24.472l-1.23 0.029c0.007 0.303 0.073 0.634 0.255 0.944 0.187 0.319 0.449 0.535 0.718 0.67 0.466 0.235 0.974 0.233 1.192 0.233v-2.462c-0.099 0-0.152-0.003-0.179-0.007-0.030-0.004 0.017-0.002 0.097 0.038 0.095 0.048 0.212 0.139 0.296 0.282 0.078 0.133 0.082 0.236 0.083 0.244l-1.23 0.029zM16.072 23.744v-1.231c-0.301 0-0.831 0.026-1.309 0.317-0.607 0.369-0.884 0.998-0.869 1.67l2.461-0.056c0 0.003 0.001 0.090-0.060 0.211-0.065 0.13-0.163 0.223-0.253 0.277-0.077 0.047-0.127 0.053-0.11 0.050 0.015-0.003 0.058-0.008 0.141-0.008v-1.231zM26.499 23.744v-1.231h-10.426v2.462h10.426v-1.231zM27.46 24.459h1.231c0-0.31-0.060-0.64-0.229-0.952-0.172-0.318-0.419-0.546-0.682-0.698-0.475-0.274-0.995-0.295-1.281-0.295v2.462c0.083 0 0.128 0.005 0.147 0.008 0.021 0.004-0.023-0-0.096-0.043-0.085-0.049-0.184-0.136-0.253-0.264-0.065-0.121-0.067-0.211-0.067-0.218h1.231zM26.485 25.118v1.231c0.191 0 0.717 0.012 1.189-0.209 0.279-0.131 0.562-0.349 0.762-0.687 0.193-0.328 0.255-0.679 0.255-0.994h-2.462c0-0 0-0.027 0.011-0.073 0.011-0.047 0.033-0.111 0.075-0.182 0.092-0.156 0.221-0.248 0.317-0.293 0.078-0.036 0.119-0.035 0.075-0.030-0.042 0.005-0.105 0.007-0.222 0.007v1.231z"></path>
    </symbol>
    <symbol id="icon-game" viewBox="0 0 43 32">
      <path fill="#e60000" style="fill: var(--color4, #e60000)"
        d="M19.927 5.082c0-0.398-0.004-0.793-0.008-1.187-0.009-0.912-0.018-1.815 0.022-2.717 0.043-0.71 0.753-1.207 1.463-1.178 0.71 0.043 1.307 0.582 1.335 1.32 0.019 0.818 0.013 1.629 0.006 2.463-0.003 0.426-0.006 0.857-0.006 1.299h-2.812zM0.824 18.943c-0.442 1.471-0.882 2.939-0.824 4.509 0 0.095-0.002 0.189-0.003 0.284-0.003 0.189-0.006 0.379 0.003 0.568 0.312 4.94 5.014 8.135 9.715 6.573 2.088-0.696 3.579-2.101 4.446-4.117 0.795-1.831 2.074-3.18 3.949-3.847 1.903-0.681 3.877-0.667 5.809-0.199 2.116 0.525 3.48 1.959 4.36 3.932 1.463 3.308 5.127 5.196 8.494 4.415 4.048-0.937 6.718-5.182 5.653-9.199-0.923-3.521-1.917-7.013-3.025-10.477-1.733-5.423-8.707-7.595-12.953-3.705-0.17 0.156-0.469 0.256-0.696 0.256-2.983 0.014-5.965 0.014-8.948 0-0.256 0-0.568-0.099-0.753-0.27-4.36-3.947-11.49-1.633-13.11 4.003-0.153 0.522-0.306 1.043-0.46 1.565-0.461 1.565-0.921 3.13-1.358 4.695-0.095 0.339-0.197 0.676-0.298 1.013zM29.511 16.376c0.158-0.153 0.332-0.321 0.529-0.519-0.151-0.134-0.296-0.256-0.433-0.37-0.211-0.176-0.403-0.338-0.575-0.51-0.724-0.724-0.767-1.576-0.156-2.186s1.463-0.54 2.187 0.185c0.236 0.236 0.463 0.481 0.738 0.777 0.072 0.078 0.148 0.16 0.228 0.245 0.114-0.126 0.221-0.249 0.325-0.367 0.247-0.282 0.476-0.543 0.726-0.783 0.639-0.611 1.463-0.625 2.031-0.071 0.596 0.582 0.582 1.434-0.043 2.087-0.238 0.249-0.499 0.475-0.811 0.744-0.115 0.1-0.237 0.206-0.368 0.321 0.178 0.166 0.346 0.314 0.507 0.454 0.236 0.207 0.455 0.399 0.658 0.61 0.639 0.667 0.639 1.519 0.057 2.087-0.597 0.582-1.42 0.554-2.074-0.099-0.212-0.221-0.406-0.46-0.621-0.725-0.116-0.143-0.239-0.294-0.373-0.454-0.167 0.177-0.313 0.338-0.448 0.485-0.232 0.254-0.43 0.472-0.646 0.679-0.682 0.653-1.491 0.696-2.088 0.114-0.611-0.596-0.582-1.448 0.085-2.144 0.177-0.185 0.358-0.36 0.565-0.56zM9.439 14.52c0.165 0.002 0.336 0.003 0.518 0.003 0-0.146-0.001-0.281-0.002-0.41-0.003-0.361-0.005-0.667 0.016-0.981 0.028-0.852 0.625-1.462 1.42-1.448 0.781 0 1.378 0.61 1.406 1.476 0.009 0.278 0.006 0.556 0.003 0.859-0.002 0.16-0.003 0.327-0.003 0.504 0.164 0 0.324-0.002 0.48-0.003 0.303-0.003 0.593-0.006 0.884 0.003 0.852 0.028 1.463 0.625 1.463 1.405 0 0.795-0.611 1.391-1.463 1.42-0.276 0.009-0.546 0.007-0.849 0.003-0.165-0.002-0.338-0.003-0.528-0.003 0 0.161 0.002 0.315 0.003 0.464 0.003 0.287 0.006 0.557-0.003 0.828-0.014 0.923-0.568 1.533-1.392 1.547-0.838 0.014-1.42-0.61-1.435-1.576v-1.264c-0.182 0-0.354 0.002-0.519 0.003-0.312 0.003-0.599 0.006-0.887-0.003-0.824-0.043-1.42-0.625-1.435-1.377-0.028-0.781 0.568-1.405 1.42-1.448 0.298-0.009 0.589-0.006 0.903-0.003z"></path>
      <path fill="#e60000" style="fill: var(--color4, #e60000)"
        d="M22.739 5.082v1.185h1.185v-1.185h-1.185zM19.927 5.082h-1.185v1.185h1.185v-1.185zM22.746 3.784v0zM22.739 1.32l1.185-0.027-0-0.009-0-0.009-1.184 0.046zM21.404 0l0.071-1.183-0.012-0.001-0.012-0-0.047 1.184zM19.941 1.178l-1.183-0.071-0.001 0.009-0 0.009 1.184 0.052zM19.919 3.896v0zM-0 23.452h1.185v-0.022l-0.001-0.022-1.184 0.044zM0.824 18.943v0zM-0.003 23.736v0zM-0 24.304l-1.184 0.059 0.001 0.016 1.183-0.075zM9.715 30.877l0.374 1.125 0.001-0-0.375-1.125zM14.161 26.76l-1.087-0.472-0.002 0.004 1.089 0.468zM18.109 22.913l0.397 1.117 0.002-0.001-0.4-1.116zM23.918 22.714l0.285-1.15-0.006-0.002-0.279 1.152zM28.279 26.647l1.084-0.479-0.002-0.004-1.082 0.483zM36.772 31.062l-0.267-1.155-0.001 0 0.268 1.155zM42.425 21.863l-1.146 0.301 0.001 0.003 1.146-0.304zM39.4 11.386v0zM26.446 7.68v0zM25.751 7.936v-1.185l-0.006 0 0.006 1.185zM16.802 7.936l0.006-1.185h-0.006v1.185zM16.050 7.666l0.804-0.871-0.008-0.008-0.795 0.879zM2.94 11.669l1.137 0.333 0.002-0.006-1.139-0.327zM2.48 13.235v0zM1.122 17.93l1.141 0.321 0.001-0.003-1.142-0.319zM30.040 15.857l0.838 0.838 0.889-0.889-0.94-0.835-0.787 0.886zM29.511 16.376v0zM29.607 15.487v0zM29.031 14.977v0zM28.875 12.791v0zM31.063 12.976v0zM31.8 13.752v0zM32.028 13.998l-0.867 0.808 0.882 0.947 0.866-0.962-0.881-0.793zM32.353 13.63v0zM33.079 12.848l-0.819-0.857-0.002 0.002 0.821 0.855zM35.111 12.777l0.828-0.848-0-0.001-0.827 0.849zM35.068 14.864l0.855 0.82 0.001-0.001-0.856-0.819zM34.257 15.608v0zM33.889 15.928l-0.784-0.889-0.979 0.863 0.953 0.891 0.809-0.866zM34.396 16.383v0zM35.054 16.993l0.856-0.82-0.001-0.001-0.855 0.821zM35.111 19.080v0zM33.037 18.981l-0.855 0.82 0.009 0.009 0.009 0.009 0.838-0.838zM32.416 18.256v0zM32.043 17.802l0.906-0.765-0.857-1.016-0.911 0.968 0.863 0.812zM31.595 18.288v0zM30.949 18.966v0zM28.861 19.080v0zM28.946 16.936l0.855 0.821 0.001-0.001-0.856-0.819zM9.956 14.523v1.185h1.185v-1.185h-1.185zM9.439 14.52v0zM9.955 14.113v0zM9.971 13.132l1.183 0.079 0.001-0.020 0.001-0.020-1.185-0.039zM11.391 11.684l-0.021 1.185 0.011 0h0.011v-1.185zM12.797 13.16v0zM12.8 14.019v0zM12.797 14.523h-1.185v1.185h1.185v-1.185zM13.277 14.52v0zM14.161 14.523l0.039-1.184-0.001-0-0.038 1.185zM14.161 17.348v0zM13.311 17.351v0zM12.783 17.348v-1.185h-1.185v1.185h1.185zM12.786 17.812v0zM12.783 18.64l-1.184-0.041-0 0.011-0 0.011 1.185 0.018zM11.391 20.187l0.020 1.185h0l-0.020-1.185zM9.956 18.612h-1.185v0.009l0 0.009 1.185-0.017zM9.956 17.348h1.185v-1.185h-1.185v1.185zM9.438 17.351v0zM8.55 17.348l-0.061 1.184 0.011 0.001 0.011 0 0.038-1.185zM7.116 15.971l1.185-0.022-0-0.010-0-0.010-1.184 0.043zM8.536 14.523l-0.037-1.185-0.011 0-0.011 0.001 0.059 1.184zM22.739 5.082v-1.185h-2.812v2.37h2.812v-1.185zM22.746 3.784l-1.185-0.009c-0.003 0.425-0.006 0.861-0.006 1.307h2.37c0-0.436 0.003-0.863 0.006-1.29l-1.185-0.009zM22.739 1.32l-1.185 0.027c0.018 0.797 0.012 1.59 0.006 2.427l2.37 0.018c0.006-0.831 0.013-1.661-0.007-2.5l-1.185 0.027zM21.404 0l-0.071 1.183c0.077 0.005 0.136 0.036 0.172 0.070 0.031 0.030 0.048 0.063 0.050 0.113l2.369-0.091c-0.054-1.409-1.194-2.383-2.448-2.458l-0.071 1.183zM19.941 1.178l1.183 0.071c-0.001 0.015-0.006 0.027-0.008 0.031-0.001 0.001 0.006-0.011 0.030-0.029s0.058-0.037 0.099-0.050c0.041-0.013 0.080-0.018 0.112-0.016l0.047-1.184 0.047-1.184c-1.174-0.047-2.602 0.771-2.693 2.292l1.183 0.071zM19.919 3.896l1.185-0.012c-0.009-0.918-0.017-1.788 0.021-2.654l-2.368-0.104c-0.041 0.94-0.032 1.874-0.023 2.781l1.185-0.012zM19.927 5.082h1.185c0-0.405-0.004-0.806-0.008-1.198l-2.37 0.023c0.004 0.394 0.008 0.784 0.008 1.175h1.185zM-0 23.452l1.184-0.044c-0.049-1.343 0.324-2.624 0.775-4.125l-2.27-0.681c-0.433 1.441-0.94 3.095-0.874 4.894l1.184-0.044zM-0.003 23.736l1.185 0.020c0.002-0.093 0.003-0.198 0.003-0.304h-2.37c0 0.083-0.001 0.168-0.003 0.264l1.185 0.020zM-0 24.304l1.184-0.059c-0.007-0.143-0.005-0.293-0.002-0.489l-2.37-0.040c-0.003 0.183-0.007 0.412 0.004 0.647l1.184-0.059zM9.715 30.877l-0.374-1.125c-3.959 1.315-7.895-1.353-8.159-5.523l-2.366 0.15c0.361 5.711 5.828 9.431 11.271 7.623l-0.374-1.125zM14.161 26.76l-1.089-0.468c-0.737 1.715-1.974 2.875-3.731 3.46l0.749 2.249c2.418-0.806 4.164-2.456 5.16-4.773l-1.089-0.468zM18.109 22.913l-0.397-1.117c-2.233 0.795-3.734 2.41-4.638 4.492l2.174 0.944c0.687-1.581 1.742-2.663 3.259-3.203l-0.397-1.117zM23.918 22.714l0.279-1.152c-2.107-0.511-4.324-0.54-6.488 0.235l0.799 2.232c1.642-0.588 3.374-0.589 5.13-0.163l0.279-1.152zM28.279 26.647l1.082-0.483c-0.987-2.212-2.597-3.964-5.157-4.6l-0.571 2.301c1.672 0.415 2.789 1.53 3.564 3.265l1.082-0.483zM36.772 31.062l-0.268-1.155c-2.782 0.645-5.896-0.924-7.142-3.74l-2.168 0.959c1.68 3.8 5.895 6.007 9.845 5.090l-0.268-1.154zM42.425 21.863l-1.146 0.304c0.887 3.344-1.351 6.948-4.775 7.741l0.535 2.309c4.673-1.082 7.775-5.966 6.531-10.658l-1.146 0.304zM39.4 11.386l-1.129 0.361c1.1 3.44 2.089 6.912 3.008 10.416l2.293-0.601c-0.927-3.536-1.927-7.049-3.043-10.537l-1.129 0.361zM26.446 7.68l0.8 0.874c3.552-3.253 9.53-1.483 11.024 3.192l2.258-0.721c-1.972-6.171-9.941-8.745-14.883-4.218l0.8 0.874zM25.751 7.936v1.185c0.475 0 1.074-0.18 1.497-0.567l-1.601-1.748c0.036-0.033 0.062-0.048 0.070-0.053 0.009-0.005 0.011-0.005 0.006-0.003-0.002 0.001-0.004 0.001-0.006 0.002s-0.003 0.001-0.003 0.001c0-0 0.003-0.001 0.008-0.001s0.015-0.001 0.030-0.001v1.185zM16.802 7.936l-0.006 1.185c2.986 0.014 5.973 0.014 8.959 0l-0.006-1.185-0.006-1.185c-2.979 0.014-5.958 0.014-8.937 0l-0.006 1.185zM16.050 7.666l-0.804 0.871c0.45 0.415 1.072 0.584 1.557 0.584v-2.37c0.011 0 0.013 0.001 0.006-0s-0.014-0.003-0.021-0.005c-0.007-0.002-0.006-0.003 0.002 0.002s0.031 0.018 0.064 0.048l-0.804 0.871zM2.94 11.669l1.139 0.327c1.398-4.865 7.52-6.761 11.175-3.452l1.591-1.757c-5.065-4.585-13.203-1.852-15.044 4.555l1.139 0.327zM2.48 13.235l1.137 0.335c0.154-0.522 0.307-1.044 0.46-1.567l-2.275-0.666c-0.152 0.521-0.306 1.041-0.459 1.563l1.137 0.335zM1.122 17.93l1.142 0.319c0.434-1.556 0.892-3.113 1.354-4.679l-2.274-0.669c-0.46 1.564-0.923 3.137-1.363 4.712l1.142 0.319zM0.824 18.943l1.135 0.341c0.101-0.335 0.205-0.683 0.303-1.033l-2.282-0.642c-0.092 0.327-0.19 0.655-0.292 0.993l1.135 0.341zM30.040 15.857l-0.838-0.838c-0.19 0.19-0.357 0.352-0.516 0.505l1.649 1.703c0.158-0.153 0.338-0.327 0.542-0.531l-0.838-0.838zM29.607 15.487l-0.761 0.909c0.138 0.116 0.27 0.227 0.407 0.348l1.574-1.772c-0.166-0.148-0.323-0.279-0.459-0.393l-0.761 0.909zM29.031 14.977l-0.838 0.838c0.216 0.215 0.45 0.411 0.652 0.58l1.522-1.817c-0.219-0.183-0.37-0.311-0.499-0.439l-0.838 0.838zM28.875 12.791l-0.838-0.838c-0.523 0.522-0.817 1.213-0.767 1.966 0.048 0.732 0.41 1.383 0.924 1.897l1.676-1.676c-0.21-0.21-0.232-0.348-0.234-0.375-0.001-0.015 0.001-0.025 0.006-0.037 0.006-0.014 0.023-0.048 0.072-0.098l-0.838-0.838zM31.063 12.976l0.838-0.838c-0.506-0.506-1.148-0.874-1.875-0.935-0.754-0.063-1.455 0.218-1.988 0.751l1.676 1.677c0.046-0.046 0.076-0.059 0.084-0.062 0.007-0.003 0.014-0.005 0.030-0.003 0.034 0.003 0.18 0.032 0.398 0.25l0.838-0.838zM31.8 13.752l0.869-0.806c-0.271-0.292-0.514-0.554-0.769-0.809l-1.676 1.677c0.217 0.217 0.429 0.445 0.707 0.744l0.869-0.806zM32.028 13.998l0.867-0.808c-0.079-0.085-0.154-0.166-0.227-0.244l-1.738 1.612c0.072 0.078 0.149 0.16 0.23 0.247l0.867-0.808zM32.353 13.63l-0.891-0.781c-0.105 0.119-0.207 0.236-0.315 0.356l1.762 1.586c0.12-0.133 0.232-0.261 0.335-0.379l-0.891-0.781zM33.079 12.848l-0.821-0.855c-0.293 0.281-0.555 0.582-0.796 0.856l1.782 1.563c0.254-0.289 0.449-0.51 0.655-0.709l-0.821-0.855zM35.111 12.777l0.827-0.849c-0.502-0.489-1.157-0.758-1.852-0.737-0.688 0.021-1.324 0.321-1.825 0.8l1.637 1.714c0.138-0.131 0.233-0.144 0.259-0.144 0.019-0.001 0.060 0.001 0.126 0.065l0.827-0.849zM35.068 14.864l0.856 0.819c0.488-0.51 0.794-1.161 0.808-1.867 0.014-0.714-0.276-1.382-0.794-1.888l-1.655 1.696c0.078 0.076 0.080 0.125 0.080 0.146-0.001 0.029-0.014 0.131-0.151 0.274l0.856 0.819zM34.257 15.608l0.776 0.896c0.302-0.262 0.607-0.524 0.891-0.82l-1.711-1.641c-0.193 0.202-0.411 0.391-0.731 0.668l0.776 0.896zM33.889 15.928l0.784 0.889c0.126-0.111 0.244-0.213 0.36-0.313l-1.551-1.792c-0.115 0.099-0.241 0.209-0.376 0.328l0.784 0.889zM34.396 16.383l0.781-0.891c-0.162-0.142-0.316-0.277-0.478-0.429l-1.619 1.731c0.194 0.181 0.376 0.341 0.535 0.48l0.781-0.891zM35.054 16.993l0.855-0.821c-0.245-0.255-0.502-0.479-0.732-0.681l-1.562 1.783c0.243 0.213 0.423 0.371 0.585 0.54l0.855-0.821zM35.111 19.080l0.827 0.849c0.512-0.5 0.801-1.165 0.787-1.878-0.014-0.706-0.32-1.361-0.816-1.878l-1.712 1.64c0.144 0.15 0.157 0.255 0.157 0.284 0 0.022-0.002 0.067-0.072 0.135l0.828 0.848zM33.037 18.981l-0.838 0.838c0.496 0.496 1.134 0.827 1.844 0.859 0.72 0.032 1.386-0.252 1.895-0.749l-1.655-1.697c-0.047 0.046-0.082 0.064-0.099 0.071-0.016 0.006-0.026 0.007-0.037 0.007-0.015-0.001-0.116-0.010-0.273-0.167l-0.838 0.838zM32.416 18.256l-0.92 0.747c0.209 0.257 0.434 0.535 0.685 0.798l1.711-1.641c-0.172-0.18-0.335-0.379-0.556-0.651l-0.92 0.747zM32.043 17.802l-0.906 0.764c0.126 0.15 0.242 0.292 0.359 0.436l1.84-1.494c-0.116-0.142-0.245-0.302-0.388-0.471l-0.906 0.765zM31.595 18.288l0.876 0.798c0.135-0.148 0.275-0.302 0.434-0.471l-1.726-1.625c-0.175 0.185-0.327 0.352-0.461 0.499l0.876 0.798zM30.949 18.966l0.82 0.856c0.25-0.239 0.476-0.488 0.702-0.736l-1.752-1.597c-0.237 0.26-0.408 0.448-0.59 0.621l0.82 0.856zM28.861 19.080l-0.828 0.848c0.512 0.5 1.18 0.781 1.904 0.742 0.706-0.038 1.335-0.371 1.832-0.848l-1.64-1.712c-0.184 0.177-0.301 0.191-0.32 0.192-0.011 0-0.018-0.001-0.029-0.005-0.012-0.005-0.044-0.020-0.091-0.066l-0.828 0.848zM28.946 16.936l-0.855-0.821c-0.493 0.514-0.824 1.165-0.851 1.885-0.028 0.735 0.267 1.414 0.793 1.928l1.656-1.696c-0.048-0.046-0.066-0.081-0.072-0.097s-0.009-0.028-0.008-0.045c0.001-0.029 0.018-0.152 0.193-0.333l-0.855-0.821zM29.511 16.376l-0.825-0.851c-0.203 0.197-0.401 0.388-0.596 0.592l1.713 1.639c0.159-0.166 0.323-0.326 0.533-0.529l-0.825-0.851zM9.956 14.523v-1.185c-0.175 0-0.34-0.002-0.506-0.003l-0.012 1.185-0.012 1.185c0.165 0.002 0.341 0.003 0.529 0.003v-1.185zM9.955 14.113l-1.185 0.009c0.001 0.129 0.002 0.261 0.002 0.401h2.37c0-0.15-0.001-0.29-0.002-0.418l-1.185 0.009zM9.971 13.132l-1.183-0.079c-0.024 0.365-0.021 0.716-0.019 1.069l2.37-0.017c-0.003-0.369-0.004-0.631 0.014-0.894l-1.183-0.079zM11.391 11.684l0.021-1.185c-1.521-0.027-2.579 1.175-2.626 2.594l2.369 0.079c0.005-0.157 0.058-0.232 0.085-0.259 0.022-0.022 0.055-0.045 0.13-0.044l0.021-1.185zM12.797 13.16l1.184-0.039c-0.047-1.422-1.090-2.623-2.591-2.623v2.37c0.069 0 0.104 0.022 0.13 0.049 0.030 0.031 0.086 0.113 0.091 0.281l1.185-0.039zM12.8 14.019l1.185 0.012c0.003-0.297 0.006-0.602-0.004-0.91l-2.369 0.079c0.008 0.248 0.006 0.5 0.003 0.807l1.185 0.012zM12.797 14.523h1.185c0-0.17 0.002-0.331 0.003-0.492l-2.37-0.024c-0.002 0.16-0.003 0.332-0.003 0.517h1.185zM13.277 14.52l-0.012-1.185c-0.157 0.002-0.31 0.003-0.467 0.003v2.37c0.171 0 0.337-0.002 0.492-0.003l-0.012-1.185zM14.161 14.523l0.038-1.185c-0.32-0.010-0.636-0.007-0.934-0.004l0.012 1.185 0.012 1.185c0.307-0.003 0.572-0.006 0.833 0.003l0.038-1.185zM15.624 15.928h1.185c0-1.494-1.194-2.543-2.609-2.59l-0.039 1.184-0.039 1.185c0.157 0.005 0.236 0.058 0.267 0.089 0.028 0.027 0.050 0.064 0.050 0.132h1.185zM14.161 17.348l0.039 1.184c1.422-0.047 2.609-1.103 2.609-2.604h-2.37c0 0.081-0.026 0.121-0.053 0.147-0.030 0.029-0.108 0.082-0.264 0.088l0.039 1.185zM13.311 17.351l-0.012 1.185c0.298 0.003 0.595 0.006 0.901-0.004l-0.039-1.184-0.039-1.185c-0.246 0.008-0.49 0.006-0.798 0.003l-0.012 1.185zM12.783 17.348v1.185c0.183 0 0.351 0.002 0.516 0.003l0.012-1.185 0.012-1.185c-0.164-0.002-0.344-0.003-0.54-0.003v1.185zM12.786 17.812l1.185-0.013c-0.002-0.15-0.003-0.298-0.003-0.451h-2.37c0 0.168 0.002 0.328 0.003 0.477l1.185-0.013zM12.783 18.64l1.184 0.041c0.010-0.302 0.007-0.6 0.004-0.882l-2.37 0.026c0.003 0.292 0.006 0.535-0.003 0.774l1.184 0.041zM11.391 20.187l0.020 1.185c0.716-0.012 1.38-0.293 1.859-0.824 0.47-0.521 0.687-1.198 0.697-1.89l-2.37-0.037c-0.004 0.231-0.071 0.321-0.088 0.339-0.010 0.011-0.019 0.017-0.032 0.023s-0.047 0.017-0.108 0.018l0.020 1.185zM9.956 18.612l-1.185 0.017c0.011 0.714 0.235 1.409 0.72 1.939 0.496 0.541 1.184 0.817 1.92 0.805l-0.020-1.185-0.020-1.185c-0.059 0.001-0.089-0.009-0.101-0.014s-0.020-0.011-0.031-0.022c-0.019-0.021-0.093-0.12-0.097-0.372l-1.185 0.018zM9.956 17.348h-1.185v1.264h2.37v-1.264h-1.185zM9.438 17.351l0.012 1.185c0.166-0.002 0.332-0.003 0.507-0.003v-2.37c-0.189 0-0.366 0.002-0.531 0.003l0.012 1.185zM8.55 17.348l-0.038 1.185c0.317 0.010 0.63 0.007 0.937 0.004l-0.012-1.185-0.012-1.185c-0.316 0.003-0.579 0.005-0.837-0.003l-0.038 1.185zM7.116 15.971l-1.185 0.022c0.027 1.447 1.189 2.467 2.558 2.538l0.122-2.367c-0.146-0.008-0.225-0.059-0.259-0.092-0.032-0.030-0.050-0.067-0.052-0.124l-1.185 0.022zM8.536 14.523l-0.059-1.184c-1.433 0.072-2.6 1.182-2.546 2.675l2.369-0.086c-0.002-0.066 0.018-0.103 0.045-0.131 0.029-0.030 0.103-0.083 0.25-0.090l-0.059-1.184zM9.439 14.52l0.012-1.185c-0.309-0.003-0.625-0.006-0.951 0.004l0.074 2.369c0.269-0.008 0.536-0.006 0.854-0.003l0.012-1.185z"></path>
    </symbol>
    <symbol id="icon-glasses" viewBox="0 0 42 32">
      <path fill="#e60000" style="fill: var(--color4, #e60000)"
        d="M19.579 6.885c-0.719 0.003-1.44 0.006-2.156-0.003-1.253-0.013-1.912-0.671-1.912-1.911v-3.034c0.013-1.24 0.685-1.924 1.899-1.937h6.524c1.227 0 1.912 0.697 1.912 1.924 0.013 1.033 0.013 2.066 0 3.099-0.013 1.175-0.672 1.834-1.834 1.859-0.75 0.009-1.501 0.006-2.247 0.003-0.372-0.001-0.743-0.003-1.112-0.003-0.357 0-0.715 0.001-1.074 0.003zM34.102 10.343c2.377 0 3.772 1.382 3.798 3.745 0.013 1.214 0.22 1.407 1.434 1.42 1.357 0 2.028 0.658 2.028 2.001v6.327c0 1.343-0.672 2.001-2.028 2.001-1.214 0-1.421 0.207-1.434 1.42-0.013 2.363-1.421 3.758-3.798 3.745-0.242-0.002-0.484-0.003-0.726-0.004-1.696-0.010-3.39-0.020-5.074-0.099-1.124-0.052-2.119-0.542-3.010-1.201-0.499-0.362-0.991-0.731-1.48-1.1-0.385-0.29-0.769-0.579-1.155-0.863-1.356-1.020-2.545-1.020-3.902-0.013-0.433 0.323-0.862 0.646-1.292 0.968s-0.859 0.646-1.292 0.968c-1.214 0.891-2.584 1.343-4.095 1.343-1.679 0.013-3.359 0.013-5.038 0-2.093-0.013-3.527-1.433-3.566-3.525v-0.581c-0.039-0.749-0.336-1.033-1.085-1.059h-0.646c-1.008-0.052-1.718-0.723-1.718-1.717-0.026-2.298-0.026-4.61-0.013-6.908 0.013-0.968 0.711-1.64 1.667-1.704 0.103-0.009 0.2-0.006 0.299-0.003 0.050 0.001 0.101 0.003 0.153 0.003 1.072 0 1.318-0.245 1.331-1.33 0.026-2.479 1.382-3.835 3.837-3.835h26.807z"></path>
      <path fill="#e60000" style="fill: var(--color4, #e60000)"
        d="M19.579 6.885v0zM21.765 6.885v0zM24.012 6.882l0.014 1.231 0.013-0-0.027-1.23zM25.847 5.023l-1.231-0.015v0.002l1.231 0.014zM25.847 1.924h-1.231l0 0.015 1.231-0.015zM17.41 0v-1.231l-0.013 0 0.013 1.231zM15.511 1.937l-1.231-0.013v0.013h1.231zM17.423 6.882l0.015-1.231-0.002-0-0.013 1.231zM3.458 14.178l1.231 0.015v-0.002l-1.231-0.013zM1.974 15.505l0.035-1.23h-0l-0.035 1.23zM1.675 15.508l0.083 1.228 0.010-0.001 0.010-0.001-0.102-1.226zM0.009 17.212l-1.231-0.016-0 0.009 1.231 0.007zM0.021 24.12h1.231l-0-0.014-1.231 0.014zM1.74 25.838l-0.063 1.229 0.031 0.002h0.032v-1.231zM2.386 25.838l0.042-1.23-0.021-0.001h-0.021v1.231zM3.471 26.896h1.231v-0.032l-0.002-0.032-1.229 0.064zM3.471 27.477h-1.231v0.011l0 0.011 1.231-0.023zM7.036 31.002l0.009-1.231h-0.002l-0.008 1.231zM12.075 31.002v-1.231h-0.009l0.009 1.231zM16.17 29.66l0.728 0.992 0.008-0.006-0.736-0.987zM17.462 28.691v0zM18.754 27.723l-0.734-0.988-0.002 0.002 0.736 0.987zM22.655 27.736l-0.74 0.984 0.011 0.008 0.729-0.992zM23.811 28.598v0zM25.291 29.698l0.731-0.99-0.009-0.007-0.722 0.997zM28.301 30.899l0.058-1.229-0.001-0-0.056 1.23zM33.376 30.998v0zM34.102 31.002l-0.008 1.231h0.001l0.007-1.231zM37.9 27.258l-1.231-0.013v0.006l1.231 0.007zM39.334 15.508l-0.013 1.231h0.013v-1.231zM37.9 14.087v0zM20.653 5.652c-0.36 0-0.721 0.001-1.079 0.003l0.010 2.462c0.359-0.001 0.715-0.003 1.069-0.003v-2.462zM21.77 5.654c-0.371-0.001-0.745-0.003-1.117-0.003v2.462c0.367 0 0.735 0.001 1.107 0.003l0.009-2.462zM23.998 5.652c-0.739 0.008-1.48 0.006-2.228 0.003l-0.009 2.461c0.745 0.003 1.505 0.006 2.266-0.003l-0.028-2.461zM24.616 5.009c-0.004 0.363-0.102 0.48-0.13 0.508s-0.143 0.126-0.501 0.134l0.055 2.461c0.805-0.018 1.6-0.262 2.196-0.863s0.833-1.401 0.842-2.213l-2.461-0.027zM24.616 1.939c0.013 1.023 0.013 2.045 0 3.068l2.461 0.031c0.013-1.043 0.013-2.087 0-3.13l-2.461 0.031zM23.935 1.231c0.384 0 0.51 0.105 0.542 0.137 0.034 0.034 0.139 0.166 0.139 0.556h2.462c0-0.837-0.237-1.667-0.852-2.288-0.617-0.623-1.447-0.867-2.291-0.867v2.462zM17.41 1.231h6.524v-2.462h-6.524v2.462zM16.742 1.95c0.004-0.407 0.112-0.544 0.147-0.579 0.031-0.032 0.153-0.135 0.535-0.14l-0.026-2.461c-0.833 0.009-1.654 0.254-2.266 0.877-0.608 0.62-0.842 1.445-0.851 2.277l2.461 0.026zM16.742 4.971v-3.034h-2.462v3.034h2.462zM17.436 5.652c-0.424-0.004-0.547-0.114-0.569-0.135-0.019-0.019-0.125-0.135-0.125-0.545h-2.462c0 0.83 0.223 1.663 0.847 2.286 0.621 0.621 1.454 0.847 2.283 0.856l0.025-2.461zM19.574 5.654c-0.721 0.003-1.432 0.006-2.136-0.003l-0.030 2.461c0.727 0.009 1.458 0.006 2.175 0.003l-0.010-2.462zM20.666 11.574h13.436v-2.462h-13.436v2.462zM7.295 11.574h13.371v-2.462h-13.371v2.462zM4.689 14.191c0.011-1.024 0.291-1.634 0.647-1.989 0.354-0.354 0.954-0.628 1.959-0.628v-2.462c-1.449 0-2.755 0.404-3.699 1.348-0.943 0.942-1.353 2.25-1.368 3.705l2.461 0.026zM2.127 16.738c0.508 0 1.338-0.024 1.933-0.618 0.589-0.589 0.623-1.417 0.629-1.928l-2.461-0.029c-0.001 0.114-0.006 0.203-0.012 0.272s-0.014 0.108-0.018 0.125c-0.004 0.016-0.001-0.001 0.017-0.037 0.020-0.039 0.053-0.091 0.105-0.143s0.105-0.087 0.146-0.107c0.038-0.019 0.058-0.022 0.044-0.019s-0.050 0.010-0.118 0.015c-0.067 0.005-0.153 0.009-0.265 0.009v2.462zM1.939 16.735c0.048 0.001 0.116 0.003 0.189 0.003v-2.462c-0.032 0-0.065-0.001-0.118-0.002l-0.071 2.461zM1.777 16.734c0.024-0.002 0.054-0.002 0.161 0.001l0.071-2.461c-0.090-0.003-0.255-0.008-0.437 0.007l0.204 2.453zM1.239 17.229c0.002-0.18 0.062-0.28 0.121-0.339 0.065-0.065 0.188-0.139 0.397-0.153l-0.166-2.456c-1.54 0.104-2.792 1.252-2.814 2.916l2.461 0.033zM1.252 24.106c-0.026-2.289-0.026-4.593-0.013-6.887l-2.462-0.014c-0.013 2.303-0.013 4.621 0.013 6.929l2.461-0.028zM1.803 24.608c-0.246-0.013-0.377-0.094-0.437-0.153-0.053-0.052-0.113-0.145-0.113-0.335h-2.462c0 0.805 0.295 1.544 0.849 2.090 0.547 0.538 1.275 0.818 2.037 0.857l0.126-2.458zM2.386 24.607h-0.646v2.462h0.646v-2.462zM4.7 26.833c-0.025-0.491-0.144-1.13-0.648-1.62-0.501-0.486-1.14-0.589-1.624-0.606l-0.085 2.46c0.057 0.002 0.097 0.006 0.124 0.010s0.035 0.007 0.030 0.005c-0.006-0.002-0.027-0.009-0.058-0.026s-0.067-0.044-0.103-0.078c-0.035-0.034-0.063-0.070-0.082-0.102-0.019-0.031-0.027-0.054-0.030-0.061s0.001-0 0.005 0.025c0.004 0.025 0.009 0.064 0.012 0.12l2.458-0.127zM4.702 27.477v-0.581h-2.462v0.581h2.462zM7.044 29.772c-0.763-0.005-1.324-0.26-1.695-0.627s-0.633-0.927-0.647-1.69l-2.461 0.046c0.025 1.329 0.499 2.525 1.378 3.394s2.081 1.33 3.411 1.339l0.015-2.462zM12.065 29.772c-1.673 0.013-3.346 0.013-5.019 0l-0.019 2.462c1.686 0.013 3.372 0.013 5.057 0l-0.019-2.462zM15.442 28.667c-1.005 0.737-2.119 1.105-3.367 1.105v2.462c1.775 0 3.399-0.536 4.823-1.581l-1.456-1.985zM16.723 27.707c-0.43 0.323-0.858 0.644-1.288 0.966l1.472 1.973c0.435-0.324 0.866-0.648 1.295-0.971l-1.479-1.968zM18.018 26.736c-0.435 0.324-0.866 0.649-1.295 0.971l1.479 1.968c0.43-0.323 0.858-0.645 1.288-0.966l-1.472-1.973zM23.395 26.752c-0.813-0.611-1.702-1.011-2.687-1.014s-1.875 0.393-2.688 0.996l1.467 1.976c0.544-0.404 0.927-0.512 1.214-0.511s0.67 0.11 1.214 0.52l1.48-1.967zM24.551 27.615c-0.384-0.289-0.773-0.582-1.166-0.871l-1.458 1.983c0.38 0.279 0.758 0.564 1.144 0.854l1.48-1.967zM26.013 28.702c-0.489-0.354-0.971-0.717-1.462-1.087l-1.48 1.967c0.488 0.368 0.989 0.744 1.499 1.114l1.444-1.994zM28.358 29.67c-0.79-0.036-1.552-0.382-2.335-0.961l-1.463 1.98c0.999 0.738 2.227 1.373 3.685 1.44l0.113-2.459zM33.383 29.767c-1.7-0.010-3.369-0.020-5.024-0.097l-0.115 2.459c1.714 0.081 3.434 0.090 5.125 0.1l0.014-2.462zM34.11 29.772c-0.243-0.002-0.485-0.003-0.727-0.004l-0.014 2.462c0.242 0.001 0.484 0.003 0.725 0.004l0.016-2.462zM36.669 27.251c-0.005 0.938-0.282 1.534-0.646 1.894s-0.967 0.632-1.914 0.626l-0.013 2.462c1.43 0.008 2.72-0.412 3.657-1.336s1.371-2.208 1.379-3.633l-2.462-0.013zM39.334 24.607c-0.32 0-0.662 0.012-0.977 0.075-0.329 0.066-0.724 0.207-1.057 0.536s-0.476 0.723-0.545 1.051c-0.066 0.314-0.082 0.655-0.085 0.975l2.461 0.026c0.001-0.136 0.006-0.244 0.012-0.329s0.015-0.137 0.020-0.163c0.011-0.052-0.003 0.062-0.13 0.188s-0.242 0.139-0.191 0.129c0.026-0.005 0.076-0.013 0.163-0.018s0.193-0.009 0.329-0.009v-2.462zM40.132 23.836c0 0.481-0.12 0.609-0.138 0.627-0.022 0.022-0.161 0.143-0.659 0.143v2.462c0.859 0 1.734-0.208 2.387-0.851 0.656-0.646 0.873-1.52 0.873-2.381h-2.462zM40.132 17.509v6.327h2.462v-6.327h-2.462zM39.334 16.738c0.498 0 0.637 0.121 0.659 0.143 0.019 0.019 0.138 0.146 0.138 0.627h2.462c0-0.861-0.217-1.735-0.873-2.381-0.653-0.643-1.528-0.851-2.387-0.851v2.462zM36.669 14.1c0.003 0.32 0.019 0.661 0.086 0.975 0.070 0.329 0.215 0.722 0.549 1.050 0.332 0.327 0.725 0.465 1.049 0.532 0.312 0.064 0.65 0.078 0.968 0.082l0.026-2.461c-0.137-0.001-0.246-0.005-0.333-0.012s-0.14-0.014-0.168-0.020c-0.057-0.012 0.056 0 0.184 0.125 0.129 0.126 0.144 0.243 0.133 0.193-0.005-0.025-0.013-0.075-0.020-0.161s-0.011-0.192-0.012-0.329l-2.461 0.026zM34.102 11.574c0.951 0 1.552 0.272 1.916 0.631s0.641 0.953 0.651 1.896l2.461-0.027c-0.016-1.42-0.449-2.698-1.383-3.621s-2.219-1.341-3.645-1.341v2.462z"></path>
    </symbol>
    <symbol id="icon-laptop" viewBox="0 0 44 32">
      <path fill="#e60000" style="fill: var(--color4, #e60000)"
        d="M37.135 0c1.476 0 1.925 0.448 1.925 1.949v16.315c0 1.502-0.449 1.949-1.925 1.949h-30.887c-1.476 0-1.925-0.448-1.925-1.949v-16.315c0-1.516 0.434-1.949 1.997-1.949h30.815zM1.862 31.763h39.673c0.347 0 0.724-0.014 1.057-0.13 0.767-0.26 0.999-0.895 0.608-1.603-1.375-2.512-2.764-5.009-4.153-7.506l-0.001-0.002c-0.333-0.577-0.811-0.866-1.476-0.866h-31.77c-0.666 0-1.143 0.289-1.462 0.866l-0 0c-1.389 2.498-2.779 4.995-4.154 7.508-0.391 0.707-0.145 1.343 0.622 1.603 0.318 0.115 0.695 0.13 1.057 0.13zM22.589 28.879c-0.304-0.002-0.608-0.003-0.912-0.003s-0.607 0.002-0.911 0.003c-0.61 0.003-1.221 0.007-1.839-0.003-0.926-0.014-1.563-0.592-1.578-1.415-0.014-0.852 0.637-1.458 1.607-1.458 1.824-0.014 3.662-0.014 5.486 0 0.926 0.014 1.563 0.592 1.578 1.415 0.014 0.837-0.637 1.444-1.607 1.458-0.608 0.010-1.216 0.007-1.824 0.003z"></path>
      <path fill="#e60000" style="fill: var(--color4, #e60000)"
        d="M42.591 31.633l-0.38-1.123-0.008 0.003 0.389 1.12zM43.199 30.030l-1.040 0.569 0.002 0.004 1.037-0.573zM39.046 22.524l1.036-0.576-0.001-0.002-1.035 0.578zM39.045 22.523l1.035-0.578-0.008-0.014-1.027 0.592zM4.337 22.523l1.037 0.574 0.001-0.002-1.038-0.572zM4.337 22.523l1.036 0.576 0.001-0.002-1.037-0.574zM0.183 30.030l1.037 0.573 0.002-0.004-1.040-0.569zM0.806 31.633l0.404-1.114-0.012-0.004-0.012-0.004-0.38 1.123zM22.589 28.879v0zM20.766 28.879v0zM18.927 28.875v0zM17.349 27.46v0zM18.956 26.002v1.185l0.009-0-0.009-1.185zM24.441 26.002l0.018-1.185h-0.009l-0.009 1.185zM26.019 27.417v0zM24.412 28.875l-0.018-1.185h-0.001l0.019 1.185zM21.72 0v1.185h15.415v-2.37h-15.415v1.185zM6.32 0v1.185h15.4v-2.37h-15.4v1.185zM4.323 1.949h1.185c0-0.335 0.025-0.534 0.055-0.649 0.026-0.102 0.042-0.086 0.002-0.047-0.039 0.038-0.048 0.018 0.068-0.011 0.128-0.031 0.34-0.057 0.688-0.057v-2.37c-0.8 0-1.744 0.087-2.414 0.745-0.679 0.665-0.768 1.607-0.768 2.39h1.185zM4.323 18.264h1.185v-16.315h-2.37v16.315h1.185zM6.248 20.213v-1.185c-0.32 0-0.512-0.025-0.623-0.055-0.098-0.026-0.087-0.042-0.051-0.006s0.017 0.044-0.010-0.061c-0.030-0.117-0.056-0.315-0.056-0.643h-2.37c0 0.788 0.098 1.711 0.752 2.372 0.658 0.665 1.58 0.763 2.358 0.763v-1.185zM37.135 20.213v-1.185h-30.887v2.37h30.887v-1.185zM39.060 18.264h-1.185c0 0.327-0.026 0.526-0.056 0.643-0.027 0.105-0.045 0.096-0.010 0.061s0.047-0.020-0.051 0.006c-0.111 0.029-0.303 0.055-0.623 0.055v2.37c0.778 0 1.7-0.098 2.358-0.763 0.654-0.661 0.752-1.584 0.752-2.372h-1.185zM39.060 1.949h-1.185v16.315h2.37v-16.315h-1.185zM37.135 0v1.185c0.32 0 0.512 0.026 0.623 0.055 0.098 0.026 0.087 0.042 0.051 0.006s-0.017-0.044 0.010 0.061c0.030 0.117 0.056 0.315 0.056 0.643h2.37c0-0.788-0.098-1.711-0.752-2.372-0.658-0.665-1.58-0.763-2.358-0.763v1.185zM21.619 31.763v-1.185h-19.757v2.37h19.757v-1.185zM41.535 31.763v-1.185h-19.916v2.37h19.916v-1.185zM42.591 31.633l-0.389-1.12c-0.127 0.044-0.325 0.064-0.668 0.064v2.37c0.352 0 0.906-0.009 1.445-0.195l-0.389-1.12zM43.199 30.030l-1.037 0.573c0.038 0.070 0.041 0.1 0.040 0.092-0.001-0.005-0.002-0.018 0-0.039s0.008-0.047 0.018-0.073c0.010-0.027 0.023-0.051 0.037-0.070s0.025-0.031 0.031-0.036c0.011-0.010-0.005 0.009-0.077 0.033l0.761 2.245c0.625-0.212 1.206-0.643 1.468-1.34 0.259-0.691 0.11-1.393-0.203-1.958l-1.037 0.573zM39.046 22.524l-1.036 0.576c1.389 2.498 2.777 4.992 4.149 7.499l2.079-1.138c-1.377-2.516-2.768-5.017-4.157-7.513l-1.036 0.576zM39.045 22.523l-1.035 0.578 0.001 0.002 2.069-1.157-1.035 0.578zM37.569 21.657v1.185c0.156 0 0.226 0.032 0.26 0.052 0.036 0.021 0.104 0.073 0.19 0.221l2.054-1.184c-0.248-0.43-0.584-0.81-1.037-1.078-0.455-0.269-0.956-0.381-1.466-0.381v1.185zM5.799 21.657v1.185h31.77v-2.37h-31.77v1.185zM4.337 22.523l1.038 0.572c0.077-0.139 0.139-0.186 0.169-0.204s0.098-0.050 0.255-0.050v-2.37c-0.509 0-1.012 0.112-1.468 0.384s-0.79 0.658-1.032 1.096l1.038 0.572zM4.337 22.523v0zM0.183 30.030l1.040 0.569c1.373-2.508 2.76-5.002 4.15-7.5l-2.071-1.152c-1.389 2.497-2.781 4.998-4.158 7.515l1.040 0.569zM0.806 31.633l0.38-1.123c-0.073-0.025-0.093-0.045-0.084-0.037 0.004 0.004 0.015 0.014 0.028 0.032s0.025 0.040 0.036 0.066 0.016 0.051 0.018 0.073c0.002 0.022 0.001 0.036 0.001 0.043-0.001 0.011-0-0.016 0.036-0.083l-2.075-1.146c-0.317 0.574-0.458 1.281-0.19 1.971s0.849 1.117 1.47 1.327l0.38-1.122zM1.862 31.763v-1.185c-0.367 0-0.551-0.022-0.652-0.059l-0.808 2.228c0.536 0.194 1.104 0.201 1.461 0.201v-1.185zM21.677 28.875v1.185c0.3 0 0.601 0.002 0.906 0.003l0.006-1.185 0.006-1.185c-0.303-0.002-0.61-0.003-0.918-0.003v1.185zM20.766 28.879l0.006 1.185c0.304-0.002 0.605-0.003 0.905-0.003v-2.37c-0.307 0-0.614 0.002-0.917 0.003l0.006 1.185zM18.927 28.875l-0.018 1.185c0.633 0.010 1.256 0.007 1.864 0.003l-0.006-1.185-0.006-1.185c-0.611 0.003-1.211 0.006-1.815-0.003l-0.018 1.185zM17.349 27.46l-1.185 0.021c0.013 0.729 0.31 1.394 0.839 1.871 0.521 0.469 1.201 0.697 1.905 0.708l0.018-1.185 0.018-1.185c-0.222-0.004-0.324-0.071-0.357-0.1-0.024-0.021-0.053-0.056-0.055-0.15l-1.185 0.021zM18.956 26.002v-1.185c-0.731 0-1.437 0.231-1.972 0.72-0.544 0.498-0.832 1.193-0.819 1.943l2.37-0.040c-0.001-0.058 0.009-0.091 0.016-0.108s0.016-0.031 0.033-0.046c0.029-0.027 0.134-0.099 0.372-0.099v-1.185zM24.441 26.002l0.009-1.185c-1.83-0.014-3.674-0.014-5.504 0l0.009 1.185 0.009 1.185c1.817-0.014 3.649-0.014 5.467 0l0.009-1.185zM26.019 27.417l1.185-0.021c-0.013-0.729-0.309-1.394-0.839-1.871-0.521-0.469-1.201-0.697-1.905-0.708l-0.018 1.185-0.018 1.185c0.222 0.004 0.324 0.071 0.357 0.1 0.024 0.022 0.053 0.056 0.055 0.151l1.185-0.021zM24.412 28.875l0.018 1.185c0.726-0.011 1.425-0.247 1.954-0.731 0.54-0.493 0.832-1.183 0.819-1.933l-2.37 0.041c0.001 0.051-0.008 0.081-0.015 0.096s-0.016 0.030-0.034 0.047c-0.035 0.032-0.146 0.106-0.39 0.11l0.018 1.185zM22.589 28.879l-0.006 1.185c0.606 0.003 1.226 0.007 1.849-0.003l-0.019-1.185-0.019-1.185c-0.593 0.009-1.189 0.006-1.799 0.003l-0.006 1.185z"></path>
    </symbol>
    <symbol id="icon-phone" viewBox="0 0 18 32">
      <path fill="#e60000" style="fill: var(--color4, #e60000); stroke: var(--color4, #e60000)"
        stroke="#e60000" stroke-linejoin="miter" stroke-linecap="butt" stroke-miterlimit="4"
        stroke-width="0.8889"
        d="M13.949 0.451v0.001c1.788 0.009 3.066 1.283 3.066 3.053v0.001c0.010 8.334 0.010 16.659 0 24.993v0.001c-0 1.773-1.28 3.053-3.053 3.053h-0.002c-3.447 0.010-6.894 0.010-10.341 0h-0.001c-0.98 0-1.761-0.32-2.297-0.852s-0.862-1.313-0.866-2.303c-0.020-4.136-0.010-8.261-0.010-12.4 0-4.129-0.010-8.265 0-12.392v-0.001c0-1.524 0.752-2.58 2.062-3.005l0.003-0.001c0.305-0.102 0.646-0.147 0.989-0.147h0.001c3.487-0.010 6.973-0.011 10.45-0.001zM8.734 25.757c-1.060 0-1.917 0.844-1.904 1.898 0.013 1.046 0.886 1.892 1.93 1.878 0.961-0.012 1.744-0.752 1.839-1.693l0.009-0.191c0.010-1.075-0.81-1.893-1.874-1.893zM6.678 2.461c-0.33 0.006-0.651 0.087-0.898 0.291-0.259 0.214-0.38 0.518-0.387 0.844-0.007 0.32 0.089 0.636 0.326 0.872 0.234 0.234 0.556 0.339 0.902 0.34v0.001c1.403 0.020 2.796 0.020 4.2 0h0.003c0.697-0.014 1.289-0.516 1.254-1.226-0.016-0.328-0.157-0.622-0.407-0.828-0.245-0.202-0.562-0.294-0.896-0.294h-4.096z"></path>
    </symbol>
    <symbol id="icon-tablet" viewBox="0 0 25 32">
      <path fill="#e60000" style="fill: var(--color4, #e60000); stroke: var(--color4, #e60000)"
        stroke="#e60000" stroke-linejoin="miter" stroke-linecap="butt" stroke-miterlimit="4"
        stroke-width="0.8889"
        d="M8.983 28.655h6.427v-2.668h-6.427v2.668zM0.455 28.89c-0.010-4.298-0.010-8.606-0.010-12.905v-12.846c0-0.91 0.262-1.57 0.693-2.002s1.088-0.693 1.992-0.693h18.144c0.904 0 1.561 0.261 1.992 0.693s0.693 1.092 0.693 2.002v25.752c0 0.887-0.262 1.541-0.693 1.972s-1.082 0.693-1.963 0.693h-18.194c-0.88 0-1.531-0.263-1.962-0.696s-0.693-1.088-0.693-1.969v-0.001z"></path>
    </symbol>
    <symbol id="icon-now" viewBox="0 0 29 32">
      <path fill="#fff" style="fill: var(--color1, #fff)"
        d="M0 3.505c0-2.662 2.854-4.35 5.187-3.067l21.542 11.848c2.418 1.33 2.418 4.804 0 6.133l-21.542 11.848c-2.333 1.283-5.187-0.405-5.187-3.067v-23.697z"></path>
    </symbol>
    <symbol id="icon-search" viewBox="0 0 32 32">
      <path fill="none" stroke="#fff" style="stroke: var(--color1, #fff)" stroke-linejoin="round"
        stroke-linecap="round" stroke-miterlimit="4" stroke-width="2.2857"
        d="M30.286 30.286l-8.414-8.414M21.872 21.872c2.197-2.197 3.557-5.233 3.557-8.586 0-6.706-5.437-12.143-12.143-12.143s-12.143 5.437-12.143 12.143c0 6.706 5.437 12.143 12.143 12.143 3.353 0 6.389-1.359 8.586-3.557z"></path>
    </symbol>
    <symbol id="icon-right" viewBox="0 0 37 32">
      <path fill="none" stroke="#fff" style="stroke: var(--color1, #fff)" stroke-linejoin="round"
        stroke-linecap="round" stroke-miterlimit="4" stroke-width="3.2"
        d="M21.2 1.6l14 14M35.2 15.6l-14 14M35.2 15.6h-33.6"></path>
    </symbol>
    <symbol id="icon-x" viewBox="0 0 32 32">
      <path fill="none" stroke="#fff" style="stroke: var(--color1, #fff)" stroke-linejoin="round"
        stroke-linecap="round" stroke-miterlimit="4" stroke-width="2" d="M24 8l-16 16"></path>
      <path fill="none" stroke="#fff" style="stroke: var(--color1, #fff)" stroke-linejoin="round"
        stroke-linecap="round" stroke-miterlimit="4" stroke-width="2" d="M8 8l16 16"></path>
    </symbol>
  </defs>
</svg>